<svg width="17" height="17" viewBox="0 0 17 17" fill="none" xmlns="http://www.w3.org/2000/svg">
<path d="M5.39961 5.09922C5.39961 5.59627 4.99666 5.99922 4.49961 5.99922C4.00256 5.99922 3.59961 5.59627 3.59961 5.09922C3.59961 4.60217 4.00256 4.19922 4.49961 4.19922C4.99666 4.19922 5.39961 4.60217 5.39961 5.09922Z" fill="#237804"/>
<path d="M4.49961 9.60078C4.99666 9.60078 5.39961 9.19782 5.39961 8.70078C5.39961 8.20373 4.99666 7.80078 4.49961 7.80078C4.00256 7.80078 3.59961 8.20373 3.59961 8.70078C3.59961 9.19782 4.00256 9.60078 4.49961 9.60078Z" fill="#237804"/>
<path d="M5.39961 12.2984C5.39961 12.7955 4.99666 13.1984 4.49961 13.1984C4.00256 13.1984 3.59961 12.7955 3.59961 12.2984C3.59961 11.8014 4.00256 11.3984 4.49961 11.3984C4.99666 11.3984 5.39961 11.8014 5.39961 12.2984Z" fill="#237804"/>
<path d="M7.8002 4.80078C7.46883 4.80078 7.2002 5.06941 7.2002 5.40078C7.2002 5.73215 7.46883 6.00078 7.8002 6.00078H12.6002C12.9315 6.00078 13.2002 5.73215 13.2002 5.40078C13.2002 5.06941 12.9315 4.80078 12.6002 4.80078H7.8002Z" fill="#237804"/>
<path d="M7.2002 8.99844C7.2002 8.66712 7.46883 8.39844 7.8002 8.39844H12.6002C12.9315 8.39844 13.2002 8.66712 13.2002 8.99844C13.2002 9.32976 12.9315 9.59844 12.6002 9.59844H7.8002C7.46883 9.59844 7.2002 9.32976 7.2002 8.99844Z" fill="#237804"/>
<path d="M7.8002 12C7.46883 12 7.2002 12.2687 7.2002 12.6C7.2002 12.9313 7.46883 13.2 7.8002 13.2H12.6002C12.9315 13.2 13.2002 12.9313 13.2002 12.6C13.2002 12.2687 12.9315 12 12.6002 12H7.8002Z" fill="#237804"/>
<path d="M0 2.4C0 1.07452 1.07452 0 2.4 0H14.4C15.7255 0 16.8 1.07452 16.8 2.4V14.4C16.8 15.7255 15.7255 16.8 14.4 16.8H2.4C1.07452 16.8 0 15.7255 0 14.4V2.4ZM2.4 1.2C1.73726 1.2 1.2 1.73726 1.2 2.4V14.4C1.2 15.0628 1.73726 15.6 2.4 15.6H14.4C15.0628 15.6 15.6 15.0628 15.6 14.4V2.4C15.6 1.73726 15.0628 1.2 14.4 1.2H2.4Z" fill="#237804"/>
</svg>
